<svg width="537" height="676" viewBox="0 0 537 676" fill="none" xmlns="http://www.w3.org/2000/svg">
<path fill-rule="evenodd" clip-rule="evenodd" d="M306.083 392.02C189.1 450.817 188.127 450.621 182.652 448.318C179.698 447.076 161.22 452.545 141.59 460.472C118.078 469.966 103.141 474.073 97.8209 472.507C93.3789 471.199 88.2484 470.851 86.4199 471.732C84.5914 472.613 81.5888 470.209 79.7473 466.388C77.0785 460.852 78.7151 458.326 87.8136 453.94C94.0914 450.914 98.4746 446.876 97.5538 444.965C96.6331 443.055 92.8455 442.955 89.137 444.743C79.3898 449.441 73.2644 443.93 82.5751 438.839C86.8779 436.486 91.6599 434.181 93.2019 433.717C94.7439 433.252 95.2523 431.309 94.3316 429.399C93.4108 427.489 88.7493 427.81 83.9726 430.112C79.196 432.415 74.5344 432.736 73.6137 430.826C72.693 428.916 73.5887 426.558 75.6041 425.587C77.5383 424.654 84.4077 417.543 91.1435 409.533C86.4885 410.951 83.4571 411.326 82.9932 410.363C82.0725 408.453 87.1711 404.043 94.3235 400.563C98.2415 398.657 102.784 396.048 106.771 393.481C110.967 389.808 115.7 386.046 121.128 382.099L122.361 381.016L110.817 383.712C104.213 385.255 108.729 381.833 123.639 373.941C127.104 371.867 127.685 369.279 125.172 366.914C124.732 366.499 124.393 366.05 124.153 365.571C104.85 375.449 86.3098 385.537 78.0087 391.141C60.6082 402.888 55.0345 404.963 57.1524 398.905C58.9624 393.729 81.0002 376.42 91.8368 371.664C97.5175 369.171 102.417 364.729 102.725 361.794C103.033 358.859 108.54 354.106 114.962 351.232C116.546 350.523 118.118 349.72 119.607 348.874C116.248 347.687 117.606 345.875 122.981 339.418C124.013 338.179 124.931 336.86 125.708 335.54C119.538 338.437 111.296 342.522 101.872 347.391C48.0576 375.196 63.5551 361.432 122.118 329.41C124.165 328.291 126.211 327.167 128.246 326.046C128.21 325.945 128.17 325.848 128.125 325.755C126.869 323.149 130.366 317.602 135.896 313.428C144.492 306.941 144.781 305.929 137.887 306.456C133.452 306.796 177.563 284.215 235.911 256.277C294.26 228.34 335.493 209.966 327.539 215.447C315.184 223.96 314.671 224.837 324.017 221.464C327.546 220.19 349.314 210.244 380.057 195.921C410.411 180.793 431.751 169.96 434.946 167.993C443.406 162.782 442.401 162.638 428.045 167C418.803 169.808 458.861 148.997 517.063 120.754C575.264 92.5112 620.406 72.0693 617.378 75.3277C612.671 80.392 613.642 80.7963 624.072 78.113C630.782 76.3866 637.3 77.1065 638.556 79.7129C638.6 79.8053 638.651 79.8971 638.708 79.988C640.853 79.0952 643.006 78.1943 645.157 77.2899C706.687 51.4235 727.108 47.8735 671.835 72.6521C662.156 76.9914 653.826 80.8945 647.716 83.9169C649.233 84.1317 650.837 84.2342 652.449 84.1991C660.848 84.0165 663.112 84.083 661.948 87.4496C663.537 86.8122 665.145 86.0824 666.685 85.2849C672.934 82.0511 680.082 80.704 682.57 82.2916C685.059 83.8792 691.586 82.8128 697.075 79.9219C704.257 76.139 719.343 71.9122 729.781 70.2142C731.11 69.9149 732.169 69.7639 732.968 69.7583C736.225 69.3656 738.746 69.3227 739.99 69.7574C740.293 69.8632 740.568 69.9713 740.815 70.0821C743.924 69.6233 747.407 68.6012 750.391 67.1632C758.814 63.1026 760.781 63.5995 762.054 70.1009C763.222 76.065 765.296 77.0981 770.787 74.4511C774.747 72.5421 777.456 72.5041 776.804 74.3669C776.617 74.9027 776.677 75.519 776.94 76.1633C791.083 70.4989 800.617 67.4499 800.454 69.2752C800.271 71.3173 793.684 77.3765 785.534 83.0721C785.92 83.67 785.704 84.1284 784.785 84.3178C781.424 85.01 774.293 93.0983 770.42 99.4013C770.879 100.905 769.916 103.566 768.01 106.502C768.876 107.82 771.703 106.887 774.443 104.331C778.316 100.719 778.389 101.427 774.734 107.156C773.928 108.418 773.145 109.855 772.435 111.337C776.027 109.45 780.445 107.063 785.77 104.146C803.454 94.4576 814.748 89.1398 810.87 92.3284C805.641 96.6265 805.3 98.7764 809.553 100.642C813.96 102.576 811.144 106.319 797.407 116.789C778.08 131.52 766.767 142.815 766.585 147.164C771.067 146.586 774.697 147.045 775.507 148.727C775.658 149.039 774.614 149.888 772.595 151.159C774.396 155.47 765.435 165.742 749.644 176.36C739.464 183.205 733.588 187.89 736.586 186.77C741.048 185.105 741.28 185.894 737.864 191.122C735.57 194.635 723.928 201.424 711.995 206.211C699.04 211.407 690.977 216.269 691.983 218.278C694.075 222.453 638.755 250.23 592.038 268.463C523.867 295.069 507.155 302.334 519.426 300.026C529.156 298.196 527.657 299.517 510.972 307.478C499.818 312.8 489.455 316.392 487.944 315.46C486.633 314.652 483.024 315.186 476.861 317.167C469.314 322.248 464.516 325.91 464.117 327.049C463.603 328.52 459.275 331.608 454.498 333.91C443.563 339.181 444.892 334.589 456.807 325.929C457.93 325.113 459.019 324.296 460.035 323.511C442.229 330.843 415.536 343.127 378.465 360.983C337.105 380.905 313.993 390.83 306.083 392.02ZM731.095 96.244C741.599 91.3435 752.099 86.6323 761.634 82.5363C760.909 79.6855 758.467 78.4439 756.186 79.7775C753.889 81.1198 743.158 86.833 732.337 92.4728C727.617 94.9336 724.104 96.8463 721.673 98.3333C725.606 96.8012 729.072 96.0438 731.095 96.244ZM110.55 360.953C110.144 360.111 110.91 357.702 112.251 355.601C113.593 353.499 115.488 353.435 116.463 355.458C117.438 357.481 116.673 359.889 114.762 360.81C112.852 361.731 110.956 361.796 110.55 360.953ZM605.153 85.9081C603.052 84.5672 602.988 82.6722 605.011 81.6967C607.035 80.7213 609.444 81.4861 610.364 83.3962C611.285 85.3064 611.349 87.2015 610.506 87.6077C609.664 88.0138 607.255 87.249 605.153 85.9081ZM504.03 131.463C521.4 122.314 550.321 108.373 568.298 100.485C586.276 92.5956 572.064 100.082 536.717 117.12C501.369 134.158 486.661 140.613 504.03 131.463ZM677.039 87.889C676.633 87.0467 674.272 86.1452 671.792 85.8857C669.312 85.6262 668.081 87.0689 669.056 89.0917C670.031 91.1146 672.392 92.0162 674.303 91.0952C676.214 90.1741 677.445 88.7313 677.039 87.889ZM153.779 303.484C154.039 301.005 152.596 299.774 150.573 300.749C148.549 301.725 147.647 304.086 148.568 305.996C149.488 307.906 150.931 309.136 151.774 308.73C152.616 308.324 153.519 305.963 153.779 303.484ZM252.407 252.753C234.43 260.642 205.509 274.583 188.139 283.732C170.769 292.882 185.478 286.427 220.826 269.389C256.173 252.35 270.385 244.864 252.407 252.753ZM211.252 429.938C206.554 431.183 199.519 434.574 195.619 437.474C191.719 440.374 195.563 439.355 204.161 435.211C212.759 431.066 215.95 428.694 211.252 429.938Z" fill="#F7B401"/>
<path fill-rule="evenodd" clip-rule="evenodd" d="M279.083 559.02C162.1 617.817 161.127 617.621 155.652 615.318C152.698 614.076 134.22 619.545 114.59 627.472C91.0775 636.966 76.1413 641.073 70.8209 639.507C66.3789 638.199 61.2484 637.851 59.4199 638.732C57.5914 639.613 54.5888 637.209 52.7473 633.388C50.0785 627.852 51.7151 625.326 60.8136 620.94C67.0914 617.914 71.4746 613.876 70.5538 611.965C69.6331 610.055 65.8455 609.955 62.137 611.743C52.3898 616.441 46.2644 610.93 55.5751 605.839C59.8779 603.486 64.6599 601.181 66.2019 600.717C67.7439 600.252 68.2523 598.309 67.3316 596.399C66.4108 594.489 61.7493 594.81 56.9726 597.112C52.196 599.415 47.5344 599.736 46.6137 597.826C45.693 595.916 46.5887 593.558 48.6041 592.587C50.5383 591.654 57.4077 584.543 64.1435 576.533C59.4885 577.951 56.4571 578.326 55.9932 577.363C55.0725 575.453 60.1711 571.043 67.3235 567.563C71.2415 565.657 75.7843 563.048 79.7711 560.481C83.9666 556.808 88.7004 553.046 94.1285 549.099L95.3607 548.016L83.8173 550.712C77.2129 552.255 81.729 548.833 96.6389 540.941C100.104 538.867 100.685 536.279 98.1724 533.914C97.7322 533.499 97.3929 533.05 97.1525 532.571C77.8497 542.449 59.3098 552.537 51.0087 558.141C33.6082 569.888 28.0345 571.963 30.1524 565.905C31.9624 560.729 54.0002 543.42 64.8368 538.664C70.5175 536.171 75.4174 531.729 75.7255 528.794C76.0334 525.859 81.54 521.106 87.9622 518.232C89.5458 517.523 91.1181 516.72 92.6065 515.874C89.2479 514.687 90.6059 512.875 95.9808 506.418C97.0126 505.179 97.9314 503.86 98.7083 502.54C92.5377 505.437 84.2958 509.522 74.8716 514.391C21.0576 542.196 36.5551 528.432 95.1178 496.41C97.1652 495.291 99.2115 494.167 101.246 493.046C101.21 492.945 101.17 492.848 101.125 492.755C99.869 490.149 103.366 484.602 108.896 480.428C117.492 473.941 117.781 472.929 110.887 473.456C106.452 473.796 150.563 451.215 208.911 423.277C267.26 395.34 308.493 376.966 300.539 382.447C288.184 390.96 287.671 391.837 297.017 388.464C300.546 387.19 322.314 377.244 353.057 362.921C383.411 347.793 404.751 336.96 407.946 334.993C416.406 329.782 415.401 329.638 401.045 334C391.803 336.808 431.861 315.997 490.063 287.754C548.264 259.511 593.406 239.069 590.378 242.328C585.671 247.392 586.642 247.796 597.072 245.113C603.782 243.387 610.3 244.107 611.556 246.713C611.6 246.805 611.651 246.897 611.708 246.988C613.853 246.095 616.006 245.194 618.157 244.29C679.687 218.424 700.108 214.874 644.835 239.652C635.156 243.991 626.826 247.894 620.716 250.917C622.233 251.132 623.837 251.234 625.449 251.199C633.848 251.016 636.112 251.083 634.948 254.45C636.537 253.812 638.145 253.082 639.685 252.285C645.934 249.051 653.082 247.704 655.57 249.292C658.059 250.879 664.586 249.813 670.075 246.922C677.257 243.139 692.343 238.912 702.781 237.214C704.11 236.915 705.169 236.764 705.968 236.758C709.225 236.366 711.746 236.323 712.99 236.757C713.293 236.863 713.568 236.971 713.815 237.082C716.924 236.623 720.407 235.601 723.391 234.163C731.814 230.103 733.781 230.6 735.054 237.101C736.222 243.065 738.296 244.098 743.787 241.451C747.747 239.542 750.456 239.504 749.804 241.367C749.617 241.903 749.677 242.519 749.94 243.163C764.083 237.499 773.617 234.45 773.454 236.275C773.271 238.317 766.684 244.376 758.534 250.072C758.92 250.67 758.704 251.128 757.785 251.318C754.424 252.01 747.293 260.098 743.42 266.401C743.879 267.905 742.916 270.566 741.01 273.502C741.876 274.82 744.703 273.887 747.443 271.331C751.316 267.719 751.389 268.427 747.734 274.156C746.928 275.418 746.145 276.855 745.435 278.337C749.027 276.45 753.445 274.063 758.77 271.146C776.454 261.458 787.748 256.14 783.87 259.328C778.641 263.626 778.3 265.776 782.553 267.642C786.96 269.576 784.144 273.319 770.407 283.789C751.08 298.52 739.767 309.815 739.585 314.164C744.067 313.586 747.697 314.045 748.507 315.727C748.658 316.039 747.614 316.888 745.595 318.159C747.396 322.47 738.435 332.742 722.644 343.36C712.464 350.205 706.588 354.89 709.586 353.77C714.048 352.105 714.28 352.894 710.864 358.122C708.57 361.635 696.928 368.424 684.995 373.211C672.04 378.407 663.977 383.269 664.983 385.278C667.075 389.453 611.755 417.23 565.038 435.463C496.867 462.069 480.155 469.334 492.426 467.026C502.156 465.196 500.657 466.517 483.972 474.478C472.818 479.8 462.455 483.392 460.944 482.46C459.633 481.652 456.024 482.186 449.861 484.167C442.314 489.248 437.516 492.91 437.117 494.049C436.603 495.52 432.275 498.608 427.498 500.91C416.563 506.181 417.892 501.589 429.807 492.929C430.93 492.113 432.019 491.296 433.035 490.511C415.229 497.843 388.536 510.127 351.465 527.983C310.105 547.905 286.993 557.83 279.083 559.02ZM704.095 263.244C714.599 258.344 725.099 253.632 734.634 249.536C733.909 246.685 731.467 245.444 729.186 246.778C726.889 248.12 716.158 253.833 705.337 259.473C700.617 261.934 697.104 263.846 694.673 265.333C698.606 263.801 702.072 263.044 704.095 263.244ZM83.5499 527.953C83.1439 527.111 83.9095 524.702 85.2513 522.601C86.5929 520.499 88.4883 520.435 89.4633 522.458C90.4384 524.481 89.673 526.889 87.7624 527.81C85.8516 528.731 83.956 528.796 83.5499 527.953ZM578.153 252.908C576.052 251.567 575.988 249.672 578.011 248.697C580.035 247.721 582.444 248.486 583.364 250.396C584.285 252.306 584.349 254.202 583.506 254.608C582.664 255.014 580.255 254.249 578.153 252.908ZM477.03 298.463C494.4 289.314 523.321 275.373 541.298 267.485C559.276 259.596 545.064 267.082 509.717 284.12C474.369 301.158 459.661 307.613 477.03 298.463ZM650.039 254.889C649.633 254.047 647.272 253.145 644.792 252.886C642.312 252.626 641.081 254.069 642.056 256.092C643.031 258.115 645.392 259.016 647.303 258.095C649.214 257.174 650.445 255.731 650.039 254.889ZM126.779 470.484C127.039 468.005 125.596 466.774 123.573 467.749C121.549 468.725 120.647 471.086 121.568 472.996C122.488 474.906 123.931 476.136 124.774 475.73C125.616 475.324 126.519 472.963 126.779 470.484ZM225.407 419.753C207.43 427.642 178.509 441.583 161.139 450.732C143.769 459.882 158.478 453.427 193.826 436.389C229.173 419.35 243.385 411.864 225.407 419.753ZM184.252 596.938C179.554 598.183 172.519 601.574 168.619 604.474C164.719 607.374 168.563 606.355 177.161 602.211C185.759 598.066 188.95 595.694 184.252 596.938Z" fill="#F7B401"/>
</svg>
