<svg width="753" height="571" viewBox="0 0 753 571" fill="none" xmlns="http://www.w3.org/2000/svg">
<path fill-rule="evenodd" clip-rule="evenodd" d="M-20.9174 392.02C-137.9 450.817 -138.873 450.621 -144.348 448.318C-147.302 447.076 -165.78 452.545 -185.41 460.472C-208.922 469.966 -223.859 474.073 -229.179 472.507C-233.621 471.199 -238.752 470.851 -240.58 471.732C-242.409 472.613 -245.411 470.209 -247.253 466.388C-249.922 460.852 -248.285 458.326 -239.186 453.94C-232.909 450.914 -228.525 446.876 -229.446 444.965C-230.367 443.055 -234.154 442.955 -237.863 444.743C-247.61 449.441 -253.736 443.93 -244.425 438.839C-240.122 436.486 -235.34 434.181 -233.798 433.717C-232.256 433.252 -231.748 431.309 -232.668 429.399C-233.589 427.489 -238.251 427.81 -243.027 430.112C-247.804 432.415 -252.466 432.736 -253.386 430.826C-254.307 428.916 -253.411 426.558 -251.396 425.587C-249.462 424.654 -242.592 417.543 -235.856 409.533C-240.512 410.951 -243.543 411.326 -244.007 410.363C-244.928 408.453 -239.829 404.043 -232.676 400.563C-228.758 398.657 -224.216 396.048 -220.229 393.481C-216.033 389.808 -211.3 386.046 -205.872 382.099L-204.639 381.016L-216.183 383.712C-222.787 385.255 -218.271 381.833 -203.361 373.941C-199.896 371.867 -199.315 369.279 -201.828 366.914C-202.268 366.499 -202.607 366.05 -202.847 365.571C-222.15 375.449 -240.69 385.537 -248.991 391.141C-266.392 402.888 -271.966 404.963 -269.848 398.905C-268.038 393.729 -246 376.42 -235.163 371.664C-229.482 369.171 -224.583 364.729 -224.275 361.794C-223.967 358.859 -218.46 354.106 -212.038 351.232C-210.454 350.523 -208.882 349.72 -207.393 348.874C-210.752 347.687 -209.394 345.875 -204.019 339.418C-202.987 338.179 -202.069 336.86 -201.292 335.54C-207.462 338.437 -215.704 342.522 -225.128 347.391C-278.942 375.196 -263.445 361.432 -204.882 329.41C-202.835 328.291 -200.789 327.167 -198.754 326.046C-198.79 325.945 -198.83 325.848 -198.875 325.755C-200.131 323.149 -196.634 317.602 -191.104 313.428C-182.508 306.941 -182.219 305.929 -189.113 306.456C-193.548 306.796 -149.437 284.215 -91.0885 256.277C-32.7397 228.34 8.4927 209.966 0.53877 215.447C-11.816 223.96 -12.329 224.837 -2.98251 221.464C0.546425 220.19 22.314 210.244 53.0566 195.921C83.4108 180.793 104.751 169.96 107.946 167.993C116.406 162.782 115.401 162.638 101.045 167C91.8029 169.808 131.861 148.997 190.063 120.754C248.264 92.5112 293.406 72.0693 290.378 75.3277C285.671 80.392 286.642 80.7963 297.072 78.113C303.782 76.3866 310.3 77.1065 311.556 79.7129C311.6 79.8053 311.651 79.8971 311.708 79.988C313.853 79.0952 316.006 78.1943 318.157 77.2899C379.687 51.4235 400.108 47.8735 344.835 72.6521C335.156 76.9914 326.826 80.8945 320.716 83.9169C322.233 84.1317 323.837 84.2342 325.449 84.1991C333.848 84.0165 336.112 84.083 334.948 87.4496C336.537 86.8122 338.145 86.0824 339.685 85.2849C345.934 82.0511 353.082 80.704 355.57 82.2916C358.059 83.8792 364.586 82.8128 370.075 79.9219C377.257 76.139 392.343 71.9122 402.781 70.2142C404.11 69.9149 405.169 69.7639 405.968 69.7583C409.225 69.3656 411.746 69.3227 412.99 69.7574C413.293 69.8632 413.568 69.9713 413.815 70.0821C416.924 69.6233 420.407 68.6012 423.391 67.1632C431.814 63.1026 433.781 63.5995 435.054 70.1009C436.222 76.065 438.296 77.0981 443.787 74.4511C447.747 72.5421 450.456 72.5041 449.804 74.3669C449.617 74.9027 449.677 75.519 449.94 76.1633C464.083 70.4989 473.617 67.4499 473.454 69.2752C473.271 71.3173 466.684 77.3765 458.534 83.0721C458.92 83.67 458.704 84.1284 457.785 84.3178C454.424 85.01 447.293 93.0983 443.42 99.4013C443.879 100.905 442.916 103.566 441.01 106.502C441.876 107.82 444.703 106.887 447.443 104.331C451.316 100.719 451.389 101.427 447.734 107.156C446.928 108.418 446.145 109.855 445.435 111.337C449.027 109.45 453.445 107.063 458.77 104.146C476.454 94.4576 487.748 89.1398 483.87 92.3284C478.641 96.6265 478.3 98.7764 482.553 100.642C486.96 102.576 484.144 106.319 470.407 116.789C451.08 131.52 439.767 142.815 439.585 147.164C444.067 146.586 447.697 147.045 448.507 148.727C448.658 149.039 447.614 149.888 445.595 151.159C447.396 155.47 438.435 165.742 422.644 176.36C412.464 183.205 406.588 187.89 409.586 186.77C414.048 185.105 414.28 185.894 410.864 191.122C408.57 194.635 396.928 201.424 384.995 206.211C372.04 211.407 363.977 216.269 364.983 218.278C367.075 222.453 311.755 250.23 265.038 268.463C196.867 295.069 180.155 302.334 192.426 300.026C202.156 298.196 200.657 299.517 183.972 307.478C172.818 312.8 162.455 316.392 160.944 315.46C159.633 314.652 156.024 315.186 149.861 317.167C142.314 322.248 137.516 325.91 137.117 327.049C136.603 328.52 132.275 331.608 127.498 333.91C116.563 339.181 117.892 334.589 129.807 325.929C130.93 325.113 132.019 324.296 133.035 323.511C115.229 330.843 88.5357 343.127 51.4653 360.983C10.1048 380.905 -13.0071 390.83 -20.9174 392.02ZM404.095 96.244C414.599 91.3435 425.099 86.6323 434.634 82.5363C433.909 79.6855 431.467 78.4439 429.186 79.7775C426.889 81.1198 416.158 86.833 405.337 92.4728C400.617 94.9336 397.104 96.8463 394.673 98.3333C398.606 96.8012 402.072 96.0438 404.095 96.244ZM-216.45 360.953C-216.856 360.111 -216.09 357.702 -214.749 355.601C-213.407 353.499 -211.512 353.435 -210.537 355.458C-209.562 357.481 -210.327 359.889 -212.238 360.81C-214.148 361.731 -216.044 361.796 -216.45 360.953ZM278.153 85.9081C276.052 84.5672 275.988 82.6722 278.011 81.6967C280.035 80.7213 282.444 81.4861 283.364 83.3962C284.285 85.3064 284.349 87.2015 283.506 87.6077C282.664 88.0138 280.255 87.249 278.153 85.9081ZM177.03 131.463C194.4 122.314 223.321 108.373 241.298 100.485C259.276 92.5956 245.064 100.082 209.717 117.12C174.369 134.158 159.661 140.613 177.03 131.463ZM350.039 87.889C349.633 87.0467 347.272 86.1452 344.792 85.8857C342.312 85.6262 341.081 87.0689 342.056 89.0917C343.031 91.1146 345.392 92.0162 347.303 91.0952C349.214 90.1741 350.445 88.7313 350.039 87.889ZM-173.221 303.484C-172.961 301.005 -174.404 299.774 -176.427 300.749C-178.451 301.725 -179.353 304.086 -178.432 305.996C-177.512 307.906 -176.069 309.136 -175.226 308.73C-174.384 308.324 -173.481 305.963 -173.221 303.484ZM-74.593 252.753C-92.5705 260.642 -121.491 274.583 -138.861 283.732C-156.231 292.882 -141.522 286.427 -106.174 269.389C-70.8272 252.35 -56.6155 244.864 -74.593 252.753ZM-115.748 429.938C-120.446 431.183 -127.481 434.574 -131.381 437.474C-135.281 440.374 -131.437 439.355 -122.839 435.211C-114.241 431.066 -111.05 428.694 -115.748 429.938Z" fill="#F7B401"/>
<path fill-rule="evenodd" clip-rule="evenodd" d="M218.083 454.02C101.1 512.817 100.127 512.621 94.6517 510.318C91.6984 509.076 73.2204 514.545 53.5897 522.472C30.0775 531.966 15.1413 536.073 9.8209 534.507C5.37886 533.199 0.248353 532.851 -1.58013 533.732C-3.40862 534.613 -6.41125 532.209 -8.25272 528.388C-10.9215 522.852 -9.28485 520.326 -0.186395 515.94C6.09144 512.914 10.4746 508.876 9.55383 506.965C8.63309 505.055 4.84551 504.955 1.13697 506.743C-8.61024 511.441 -14.7356 505.93 -5.42491 500.839C-1.12209 498.486 3.65992 496.181 5.20189 495.717C6.74392 495.252 7.25232 493.309 6.33158 491.399C5.41084 489.489 0.7493 489.81 -4.02736 492.112C-8.80402 494.415 -13.4656 494.736 -14.3863 492.826C-15.307 490.916 -14.4113 488.558 -12.3959 487.587C-10.4617 486.654 -3.59229 479.543 3.14351 471.533C-1.51151 472.951 -4.54291 473.326 -5.0068 472.363C-5.92753 470.453 -0.82893 466.043 6.32351 462.563C10.2415 460.657 14.7843 458.048 18.7711 455.481C22.9666 451.808 27.7004 448.046 33.1285 444.099L34.3607 443.016L22.8173 445.712C16.2129 447.255 20.729 443.833 35.6389 435.941C39.104 433.867 39.6854 431.279 37.1724 428.914C36.7322 428.499 36.3929 428.05 36.1525 427.571C16.8497 437.449 -1.69017 447.537 -9.99131 453.141C-27.3918 464.888 -32.9655 466.963 -30.8476 460.905C-29.0376 455.729 -6.99984 438.42 3.83681 433.664C9.51754 431.171 14.4174 426.729 14.7255 423.794C15.0334 420.859 20.54 416.106 26.9622 413.232C28.5458 412.523 30.1181 411.72 31.6065 410.874C28.2479 409.687 29.6059 407.875 34.9808 401.418C36.0126 400.179 36.9314 398.86 37.7083 397.54C31.5377 400.437 23.2958 404.522 13.8716 409.391C-39.9424 437.196 -24.4449 423.432 34.1178 391.41C36.1652 390.291 38.2115 389.167 40.2456 388.046C40.21 387.945 40.1699 387.848 40.1253 387.755C38.869 385.149 42.366 379.602 47.8963 375.428C56.4919 368.941 56.7808 367.929 49.8871 368.456C45.4517 368.796 89.5626 346.215 147.911 318.277C206.26 290.34 247.493 271.966 239.539 277.447C227.184 285.96 226.671 286.837 236.017 283.464C239.546 282.19 261.314 272.244 292.057 257.921C322.411 242.793 343.751 231.96 346.946 229.993C355.406 224.782 354.401 224.638 340.045 229C330.803 231.808 370.861 210.997 429.063 182.754C487.264 154.511 532.406 134.069 529.378 137.328C524.671 142.392 525.642 142.796 536.072 140.113C542.782 138.387 549.3 139.107 550.556 141.713C550.6 141.805 550.651 141.897 550.708 141.988C552.853 141.095 555.006 140.194 557.157 139.29C618.687 113.424 639.108 109.874 583.835 134.652C574.156 138.991 565.826 142.894 559.716 145.917C561.233 146.132 562.837 146.234 564.449 146.199C572.848 146.016 575.112 146.083 573.948 149.45C575.537 148.812 577.145 148.082 578.685 147.285C584.934 144.051 592.082 142.704 594.57 144.292C597.059 145.879 603.586 144.813 609.075 141.922C616.257 138.139 631.343 133.912 641.781 132.214C643.11 131.915 644.169 131.764 644.968 131.758C648.225 131.366 650.746 131.323 651.99 131.757C652.293 131.863 652.568 131.971 652.815 132.082C655.924 131.623 659.407 130.601 662.391 129.163C670.814 125.103 672.781 125.6 674.054 132.101C675.222 138.065 677.296 139.098 682.787 136.451C686.747 134.542 689.456 134.504 688.804 136.367C688.617 136.903 688.677 137.519 688.94 138.163C703.083 132.499 712.617 129.45 712.454 131.275C712.271 133.317 705.684 139.376 697.534 145.072C697.92 145.67 697.704 146.128 696.785 146.318C693.424 147.01 686.293 155.098 682.42 161.401C682.879 162.905 681.916 165.566 680.01 168.502C680.876 169.82 683.703 168.887 686.443 166.331C690.316 162.719 690.389 163.427 686.734 169.156C685.928 170.418 685.145 171.855 684.435 173.337C688.027 171.45 692.445 169.063 697.77 166.146C715.454 156.458 726.748 151.14 722.87 154.328C717.641 158.626 717.3 160.776 721.553 162.642C725.96 164.576 723.144 168.319 709.407 178.789C690.08 193.52 678.767 204.815 678.585 209.164C683.067 208.586 686.697 209.045 687.507 210.727C687.658 211.039 686.614 211.888 684.595 213.159C686.396 217.47 677.435 227.742 661.644 238.36C651.464 245.205 645.588 249.89 648.586 248.77C653.048 247.105 653.28 247.894 649.864 253.122C647.57 256.635 635.928 263.424 623.995 268.211C611.04 273.407 602.977 278.269 603.983 280.278C606.075 284.453 550.755 312.23 504.038 330.463C435.867 357.069 419.155 364.334 431.426 362.026C441.156 360.196 439.657 361.517 422.972 369.478C411.818 374.8 401.455 378.392 399.944 377.46C398.633 376.652 395.024 377.186 388.861 379.167C381.314 384.248 376.516 387.91 376.117 389.049C375.603 390.52 371.275 393.608 366.498 395.91C355.563 401.181 356.892 396.589 368.807 387.929C369.93 387.113 371.019 386.296 372.035 385.511C354.229 392.843 327.536 405.127 290.465 422.983C249.105 442.905 225.993 452.83 218.083 454.02ZM643.095 158.244C653.599 153.344 664.099 148.632 673.634 144.536C672.909 141.685 670.467 140.444 668.186 141.778C665.889 143.12 655.158 148.833 644.337 154.473C639.617 156.934 636.104 158.846 633.673 160.333C637.606 158.801 641.072 158.044 643.095 158.244ZM22.5499 422.953C22.1439 422.111 22.9095 419.702 24.2513 417.601C25.5929 415.499 27.4883 415.435 28.4633 417.458C29.4384 419.481 28.673 421.889 26.7624 422.81C24.8516 423.731 22.956 423.796 22.5499 422.953ZM517.153 147.908C515.052 146.567 514.988 144.672 517.011 143.697C519.035 142.721 521.444 143.486 522.364 145.396C523.285 147.306 523.349 149.202 522.506 149.608C521.664 150.014 519.255 149.249 517.153 147.908ZM416.03 193.463C433.4 184.314 462.321 170.373 480.298 162.485C498.276 154.596 484.064 162.082 448.717 179.12C413.369 196.158 398.661 202.613 416.03 193.463ZM589.039 149.889C588.633 149.047 586.272 148.145 583.792 147.886C581.312 147.626 580.081 149.069 581.056 151.092C582.031 153.115 584.392 154.016 586.303 153.095C588.214 152.174 589.445 150.731 589.039 149.889ZM65.7787 365.484C66.0389 363.005 64.5964 361.774 62.5727 362.749C60.5492 363.725 59.647 366.086 60.5678 367.996C61.4885 369.906 62.9312 371.136 63.7738 370.73C64.6163 370.324 65.5186 367.963 65.7787 365.484ZM164.407 314.753C146.43 322.642 117.509 336.583 100.139 345.732C82.7694 354.882 97.4782 348.427 132.826 331.389C168.173 314.35 182.385 306.864 164.407 314.753ZM123.252 491.938C118.554 493.183 111.519 496.574 107.619 499.474C103.719 502.374 107.563 501.355 116.161 497.211C124.759 493.066 127.95 490.694 123.252 491.938Z" fill="#F7B401"/>
</svg>
